<svg version="1.1" id="Layer_1" xmlns="http://www.w3.org/2000/svg" xmlns:xlink="http://www.w3.org/1999/xlink" x="0px" y="0px"
	 width="100%" viewBox="0 0 2101 601" enable-background="new 0 0 2101 601" xml:space="preserve">
<path fill="none" stroke="none" 
	d="
M1477.000000,602.000000 
	C984.712097,602.000000 492.924164,602.000000 1.068115,602.000000 
	C1.068115,401.730591 1.068115,201.461151 1.068115,1.095859 
	C701.333313,1.095859 1401.666626,1.095859 2101.970703,1.095859 
	C2101.970703,201.409500 2101.970703,401.704742 2101.970703,602.000000 
	C1893.794067,602.000000 1685.647095,602.000000 1477.000000,602.000000 
M220.961212,425.982758 
	C245.634857,425.932159 270.308502,425.881531 295.911407,425.978088 
	C328.502594,425.652069 361.094818,425.057556 393.684326,425.178070 
	C402.453705,425.210510 413.031189,415.937714 411.907440,406.731812 
	C410.547150,395.587982 408.660309,384.499390 406.697815,373.440796 
	C405.064545,364.237457 402.992584,355.112000 401.016998,345.168152 
	C400.960663,344.119415 400.904327,343.070679 400.714905,341.233856 
	C397.464355,323.888702 394.300110,306.526855 390.942169,289.202515 
	C386.379669,265.663483 381.396729,242.200958 377.252625,218.590042 
	C376.427643,213.889618 374.014679,213.303391 370.844696,213.068024 
	C353.297302,211.765228 336.824066,215.150101 321.286682,225.183014 
	C308.879242,233.637497 299.019531,244.534821 292.153992,257.775604 
	C284.496094,272.544434 281.537994,288.388214 284.044037,305.831970 
	C286.641998,313.885193 289.239990,321.938446 291.273956,330.339752 
	C290.862793,331.045715 290.536591,331.820648 290.027710,332.447235 
	C282.455048,341.771942 274.809937,351.038116 267.278290,360.395660 
	C255.426605,375.120544 243.636200,389.894775 231.842667,404.666290 
	C226.449097,411.421814 221.109848,418.220734 215.075394,425.847504 
	C217.517822,425.847504 218.775208,425.847504 220.961212,425.982758 
M321.142944,174.022949 
	C304.094421,174.066833 287.045929,174.110733 269.071167,174.004257 
	C227.809708,174.002838 186.546188,174.222870 145.288345,173.836197 
	C135.603653,173.745422 124.487144,183.169510 125.969452,193.219574 
	C126.493729,196.774170 126.425156,200.423157 127.048050,203.954834 
	C128.527527,212.343124 130.258484,220.687027 132.003113,229.822449 
	C132.326416,231.237442 132.649704,232.652420 132.993240,234.932571 
	C134.336044,243.611771 135.502258,252.322784 137.058578,260.963531 
	C140.252274,278.694916 143.723541,296.376160 146.954422,314.101013 
	C151.042343,336.527618 154.944412,358.988464 159.141708,381.394226 
	C159.458908,383.087555 161.294083,385.544647 162.756683,385.809875 
	C174.734482,387.981812 186.488129,386.330078 198.754288,382.699615 
	C229.220795,371.843201 256.980011,337.237762 252.979843,300.083221 
	C251.610275,293.202057 250.240707,286.320923 249.482895,278.996429 
	C256.616669,269.148804 263.840149,259.364655 270.866272,249.440826 
	C287.517761,225.921844 304.094330,202.349655 320.619110,178.741486 
	C321.496552,177.487946 321.616180,175.703979 321.142944,174.022949 
M838.000000,386.500000 
	C838.000000,397.663086 838.271790,408.835754 837.878235,419.984955 
	C837.698181,425.084869 839.796143,426.176544 844.219482,426.054779 
	C851.543457,425.853180 858.881409,425.845825 866.204834,426.057617 
	C870.623718,426.185425 872.105286,424.635712 872.093811,420.064331 
	C871.950500,362.916504 872.000000,305.768219 872.000000,248.620041 
	C872.000000,246.934128 872.000000,245.248215 872.000000,242.139191 
	C874.524658,246.788208 876.184753,250.080673 878.053772,253.249954 
	C894.668091,281.422089 911.427185,309.509430 927.928711,337.747345 
	C943.767334,364.850708 959.411499,392.068451 974.988831,419.322998 
	C977.765015,424.180145 981.154602,426.585449 986.989014,426.111389 
	C993.111877,425.613861 999.306519,426.010712 1005.469788,425.997040 
	C1011.997559,425.982544 1011.999573,425.972443 1011.999634,419.301727 
	C1012.000122,340.827118 1012.000000,262.352509 1012.000000,183.877884 
	C1012.000000,182.067123 1012.000000,180.256348 1012.000000,177.648651 
	C1000.505554,176.832275 989.341858,176.228348 977.680664,178.074356 
	C977.680664,239.247391 977.680664,299.819183 977.680664,361.117950 
	C972.605591,352.175018 968.041504,343.966492 963.320496,335.849213 
	C954.368042,320.456482 945.269409,305.148743 936.336487,289.744781 
	C927.323792,274.202942 918.480164,258.563171 909.486633,243.010101 
	C898.872253,224.653854 887.842590,206.527161 877.674988,187.928085 
	C873.409119,180.124802 868.719421,175.403519 859.173828,176.887802 
	C852.274414,177.960632 845.042297,175.770981 838.000000,178.451859 
	C838.000000,247.575226 838.000000,316.537598 838.000000,386.500000 
M1363.007812,391.511597 
	C1346.965332,368.307465 1330.922729,345.103302 1314.932251,321.974457 
	C1315.236450,321.490173 1315.343018,321.108856 1315.589722,320.960205 
	C1318.362549,319.288757 1321.131104,317.607635 1323.949463,316.014954 
	C1342.594971,305.478455 1356.700195,290.993164 1363.322876,270.191193 
	C1367.088745,258.362518 1366.611206,246.264786 1365.042236,234.101929 
	C1362.497192,214.371841 1351.912598,199.787704 1335.837524,189.064392 
	C1319.192261,177.960571 1300.001831,174.453445 1280.567627,174.259567 
	C1261.471680,174.069046 1242.361938,176.238007 1223.241699,176.840866 
	C1218.147461,177.001495 1216.879883,178.323639 1216.889893,183.334274 
	C1217.046875,261.997070 1217.000000,340.660278 1217.000000,419.323395 
	C1217.000000,421.126434 1217.000000,422.929443 1217.000000,425.501404 
	C1229.281250,426.048798 1241.133301,426.931549 1253.000000,424.766052 
	C1253.000000,422.617859 1253.000000,421.119659 1253.000000,419.621490 
	C1253.000000,349.957977 1253.034424,280.294403 1252.916260,210.631088 
	C1252.909058,206.363113 1253.902466,204.726532 1258.454590,204.899200 
	C1267.457520,205.240753 1276.515259,204.516617 1285.490112,205.123077 
	C1296.580811,205.872467 1306.649902,210.030304 1314.933838,217.540878 
	C1322.615479,224.505341 1325.506348,233.691376 1327.247437,243.850601 
	C1330.141968,260.741730 1324.878906,274.670380 1313.188965,286.032623 
	C1301.815430,297.087555 1287.432495,303.221954 1272.099731,307.057770 
	C1269.994995,307.584290 1267.973633,308.443848 1265.052368,309.444122 
	C1271.935303,319.198761 1278.472412,328.257721 1284.795776,337.463348 
	C1303.250488,364.330353 1321.710449,391.194855 1339.947754,418.209290 
	C1343.682251,423.741119 1348.128174,426.428284 1354.860229,426.082520 
	C1362.007690,425.715424 1369.190308,426.090668 1376.354126,425.955231 
	C1379.205566,425.901367 1382.047485,425.346954 1385.804199,424.915955 
	C1378.024170,413.431702 1370.776245,402.732910 1363.007812,391.511597 
M1387.005493,320.177917 
	C1388.335083,327.691467 1389.504639,335.237549 1391.024536,342.712402 
	C1395.333496,363.903320 1404.846558,382.575134 1419.813599,398.101410 
	C1428.644409,407.262085 1439.342407,414.060028 1451.198853,419.134644 
	C1465.143311,425.102875 1479.639771,428.342468 1494.652222,428.899719 
	C1511.142944,429.511871 1527.688110,429.353699 1543.942383,425.940063 
	C1553.252319,423.984772 1562.414673,421.333527 1571.665283,419.085205 
	C1574.397461,418.421173 1575.069214,416.889160 1575.062500,414.166382 
	C1574.970215,376.340271 1574.959351,338.513763 1575.067139,300.687744 
	C1575.077148,297.157715 1573.597168,295.997375 1570.456177,295.999512 
	C1561.441528,296.005585 1552.426880,295.991547 1543.412231,296.007904 
	C1540.233521,296.013672 1538.666626,297.363342 1538.942871,300.823669 
	C1539.207275,304.135254 1539.000000,307.484528 1539.000000,310.817230 
	C1539.000000,336.812408 1538.971436,362.807709 1539.045410,388.802673 
	C1539.052490,391.320557 1538.913940,393.459076 1535.965088,393.939545 
	C1529.381836,395.012238 1522.786011,396.783997 1516.188843,396.813751 
	C1506.185059,396.858887 1496.077148,396.323700 1486.191895,394.843750 
	C1471.287354,392.612427 1458.343628,385.561676 1448.215210,374.509796 
	C1432.478638,357.338318 1426.348389,336.026886 1425.135376,313.360748 
	C1423.982300,291.814148 1425.985229,270.533813 1434.999756,250.466751 
	C1441.791382,235.348068 1451.466553,222.826752 1466.433960,214.902328 
	C1482.029053,206.645599 1498.394897,204.200058 1516.023804,205.698441 
	C1528.016113,206.717758 1539.473633,209.246811 1550.861206,212.537949 
	C1554.017944,213.450333 1554.875977,211.902695 1555.517944,209.912186 
	C1557.794189,202.853943 1560.064819,195.778091 1561.869995,188.591431 
	C1562.607056,185.656570 1562.465942,182.999725 1557.964722,181.775818 
	C1546.340210,178.615036 1534.793701,175.807846 1522.677856,174.831100 
	C1503.209961,173.261612 1484.025513,173.275055 1465.134521,179.002014 
	C1448.278809,184.111954 1433.577148,192.966675 1421.324951,205.401627 
	C1411.724365,215.145370 1404.302734,226.522141 1398.806885,239.292572 
	C1391.631470,255.965729 1387.953979,273.278320 1387.079712,291.238190 
	C1386.626587,300.547729 1387.000122,309.897522 1387.005493,320.177917 
M1749.070068,206.665634 
	C1750.786621,197.067917 1750.488037,187.537613 1748.748657,178.267410 
	C1703.184204,178.267410 1658.255249,178.267410 1613.279175,178.267410 
	C1613.279175,260.588715 1613.279175,342.642303 1613.279175,424.724182 
	C1659.634033,424.724182 1705.709106,424.724182 1752.175049,424.724182 
	C1752.175049,414.375763 1752.175049,404.300659 1752.175049,393.769043 
	C1717.290283,393.769043 1683.228760,393.769043 1649.367554,393.769043 
	C1649.367554,365.580139 1649.367554,337.851654 1649.367554,309.871735 
	C1676.027710,309.871735 1702.321045,309.871735 1729.092041,309.871735 
	C1729.092041,299.444397 1729.092041,289.276459 1729.092041,278.814758 
	C1701.914917,278.814758 1675.644897,278.814758 1649.265625,278.814758 
	C1649.265625,255.453217 1649.265625,232.391876 1649.265625,209.000000 
	C1651.328125,209.000000 1653.128906,209.000000 1654.929565,209.000000 
	C1684.590698,209.000000 1714.252075,209.023239 1743.912964,208.939499 
	C1745.607666,208.934723 1747.300049,208.055923 1749.070068,206.665634 
M1171.494873,209.000000 
	C1176.140747,209.000000 1180.786743,209.000000 1186.182373,209.000000 
	C1186.182373,198.563629 1186.182373,188.400192 1186.182373,178.330902 
	C1140.308960,178.330902 1095.254028,178.330902 1050.329712,178.330902 
	C1050.329712,260.707336 1050.329712,342.752502 1050.329712,424.673492 
	C1096.725464,424.673492 1142.790894,424.673492 1189.311523,424.673492 
	C1189.311523,414.385620 1189.311523,404.421600 1189.311523,394.015442 
	C1154.562378,394.015442 1120.497681,394.015442 1086.231201,394.015442 
	C1086.231201,365.849182 1086.231201,338.124786 1086.231201,309.971924 
	C1112.868896,309.971924 1139.279419,309.971924 1166.250610,309.971924 
	C1166.250610,299.471710 1166.250610,289.400574 1166.250610,278.886414 
	C1139.102905,278.886414 1112.700806,278.886414 1086.298706,278.886414 
	C1086.298706,255.381363 1086.298706,232.322144 1086.298706,209.000000 
	C1114.563110,209.000000 1142.529663,209.000000 1171.494873,209.000000 
M495.087921,394.595490 
	C486.294891,392.022827 477.501892,389.450165 468.626953,386.853516 
	C466.746124,392.265167 464.656464,397.351074 463.238953,402.617828 
	C461.830872,407.849548 461.098785,413.263275 459.825500,419.866486 
	C475.379028,422.954681 490.473572,427.511566 505.818939,428.631195 
	C528.540527,430.288910 551.584351,430.217407 573.185120,420.889008 
	C588.664062,414.204376 601.143127,404.020630 609.117859,388.665405 
	C617.410461,372.698212 618.180054,355.938141 616.091919,338.561066 
	C614.530212,325.564331 609.141724,314.548767 599.929626,305.538025 
	C588.442688,294.302216 573.922180,288.038055 559.343872,281.984100 
	C548.162292,277.340698 536.707153,273.234955 525.906433,267.826263 
	C512.754944,261.240417 503.646698,251.658249 504.841278,235.105759 
	C505.677063,223.524933 512.561646,212.328186 523.502258,208.225555 
	C538.554016,202.581284 554.136169,202.947113 569.603699,205.439682 
	C579.400085,207.018326 588.955444,210.092865 599.111633,212.619080 
	C601.609863,203.098663 604.172363,193.333435 607.078613,182.258453 
	C592.778870,179.684998 579.807922,176.839584 566.689819,175.109589 
	C547.006897,172.513794 527.418091,173.051529 508.465363,180.008163 
	C489.655457,186.912384 476.222382,199.235519 470.014801,218.647827 
	C466.402954,229.942703 466.305145,241.437500 467.921539,253.143448 
	C470.298950,270.360687 478.929810,283.871216 493.775848,291.924438 
	C509.468658,300.436981 526.478699,306.487488 542.674500,314.120148 
	C551.138184,318.108887 559.972900,322.113922 567.094116,327.986328 
	C583.799255,341.761841 581.818237,375.606323 560.883484,388.135498 
	C550.730774,394.211670 539.767456,396.629028 528.401733,396.814941 
	C517.575684,396.992035 506.724457,395.636322 495.087921,394.595490 
M732.950256,270.349945 
	C728.466553,279.784698 723.982849,289.219452 719.326843,299.016724 
	C714.199280,288.030670 709.244202,277.311829 704.202942,266.633636 
	C691.965942,240.713654 679.017578,215.099228 667.769531,188.757996 
	C663.472534,178.694977 657.981995,175.865341 647.973083,176.831802 
	C639.516235,177.648376 630.917908,177.000000 621.690125,177.000000 
	C622.981140,179.818375 623.615417,181.316742 624.340576,182.769791 
	C648.915710,232.012299 673.522095,281.239288 698.012695,330.523773 
	C699.191284,332.895538 699.904175,335.766266 699.916504,338.408936 
	C700.050110,367.055695 700.000000,395.703369 700.000000,425.003052 
	C712.361206,426.773438 724.520508,426.781921 737.000000,425.007477 
	C737.000000,422.883057 737.000000,421.237457 737.000000,419.591888 
	C737.000000,392.264099 736.973877,364.936249 737.052551,337.608673 
	C737.058472,335.552124 737.388855,333.290070 738.280945,331.473450 
	C752.297546,302.930695 766.419617,274.439606 780.541809,245.948776 
	C791.697327,223.443237 802.886169,200.954269 814.743591,177.082092 
	C802.356812,177.082092 791.116882,176.990967 779.881775,177.182907 
	C778.245605,177.210876 775.782898,178.159515 775.144958,179.414993 
	C770.599121,188.361786 766.371338,197.472717 762.149048,206.580826 
	C752.420288,227.567108 742.752136,248.581467 732.950256,270.349945 
M1790.948364,363.367432 
	C1781.247314,383.653625 1771.546265,403.939819 1761.155762,425.667542 
	C1772.963013,425.777679 1783.786255,426.068909 1794.600464,425.870972 
	C1798.137329,425.806244 1800.856079,424.039032 1802.563477,420.135223 
	C1812.861694,396.588989 1823.453125,373.170227 1834.056152,349.758484 
	C1841.664673,332.958862 1849.487671,316.256348 1857.080688,299.449829 
	C1857.848755,297.749725 1858.477905,295.306030 1857.840210,293.754578 
	C1849.250732,272.854584 1840.406128,252.059525 1831.662842,231.222519 
	C1824.242676,213.538925 1816.871704,195.834793 1809.345581,177.820709 
	C1796.951050,177.820709 1784.540527,177.820709 1770.955322,177.820709 
	C1788.489258,217.819595 1805.532837,256.699829 1822.646484,295.740173 
	C1822.561523,295.881897 1822.273560,296.279938 1822.067993,296.716766 
	C1811.726318,318.677826 1801.391846,340.642090 1790.948364,363.367432 
M1878.056641,252.607910 
	C1872.656982,265.579712 1867.199951,278.528290 1861.921753,291.549347 
	C1861.160645,293.427185 1860.384277,296.037262 1861.095703,297.659302 
	C1868.045288,313.507233 1875.293823,329.224426 1882.491211,344.963440 
	C1886.260254,353.205902 1890.153076,361.392059 1893.890137,369.648834 
	C1901.756104,387.027771 1909.501343,404.461792 1917.485840,421.785736 
	C1918.138672,423.202362 1920.121094,424.635895 1921.683960,424.903137 
	C1933.406982,426.907928 1945.140869,426.442780 1957.057739,424.862793 
	C1947.877197,405.179382 1939.013794,385.935638 1929.942749,366.790314 
	C1919.466675,344.679382 1908.832031,322.643341 1898.203125,300.605225 
	C1896.441406,296.952209 1895.648926,293.571869 1897.958862,289.740295 
	C1899.868774,286.572723 1901.215942,283.057068 1902.716919,279.653473 
	C1912.432861,257.621002 1922.136230,235.582962 1931.815918,213.534485 
	C1936.934814,201.874542 1941.997681,190.189926 1947.444580,177.693588 
	C1934.323853,177.693588 1921.863525,177.693588 1909.506226,177.693588 
	C1903.530762,191.902451 1897.744141,205.583160 1892.023071,219.291214 
	C1887.483398,230.168335 1883.024170,241.078979 1878.056641,252.607910 
z"/>
<path fill="#1F3C68" opacity="1.000000" stroke="none" 
	d="
M838.000000,386.000000 
	C838.000000,316.537598 838.000000,247.575226 838.000000,178.451859 
	C845.042297,175.770981 852.274414,177.960632 859.173828,176.887802 
	C868.719421,175.403519 873.409119,180.124802 877.674988,187.928085 
	C887.842590,206.527161 898.872253,224.653854 909.486633,243.010101 
	C918.480164,258.563171 927.323792,274.202942 936.336487,289.744781 
	C945.269409,305.148743 954.368042,320.456482 963.320496,335.849213 
	C968.041504,343.966492 972.605591,352.175018 977.680664,361.117950 
	C977.680664,299.819183 977.680664,239.247391 977.680664,178.074356 
	C989.341858,176.228348 1000.505554,176.832275 1012.000000,177.648651 
	C1012.000000,180.256348 1012.000000,182.067123 1012.000000,183.877884 
	C1012.000000,262.352509 1012.000122,340.827118 1011.999634,419.301727 
	C1011.999573,425.972443 1011.997559,425.982544 1005.469788,425.997040 
	C999.306519,426.010712 993.111877,425.613861 986.989014,426.111389 
	C981.154602,426.585449 977.765015,424.180145 974.988831,419.322998 
	C959.411499,392.068451 943.767334,364.850708 927.928711,337.747345 
	C911.427185,309.509430 894.668091,281.422089 878.053772,253.249954 
	C876.184753,250.080673 874.524658,246.788208 872.000000,242.139191 
	C872.000000,245.248215 872.000000,246.934128 872.000000,248.620041 
	C872.000000,305.768219 871.950500,362.916504 872.093811,420.064331 
	C872.105286,424.635712 870.623718,426.185425 866.204834,426.057617 
	C858.881409,425.845825 851.543457,425.853180 844.219482,426.054779 
	C839.796143,426.176544 837.698181,425.084869 837.878235,419.984955 
	C838.271790,408.835754 838.000000,397.663086 838.000000,386.000000 
z"/>
<path fill="#1F3C68" opacity="1.000000" stroke="none" 
	d="
M1363.268066,391.772888 
	C1370.776245,402.732910 1378.024170,413.431702 1385.804199,424.915955 
	C1382.047485,425.346954 1379.205566,425.901367 1376.354126,425.955231 
	C1369.190308,426.090668 1362.007690,425.715424 1354.860229,426.082520 
	C1348.128174,426.428284 1343.682251,423.741119 1339.947754,418.209290 
	C1321.710449,391.194855 1303.250488,364.330353 1284.795776,337.463348 
	C1278.472412,328.257721 1271.935303,319.198761 1265.052368,309.444122 
	C1267.973633,308.443848 1269.994995,307.584290 1272.099731,307.057770 
	C1287.432495,303.221954 1301.815430,297.087555 1313.188965,286.032623 
	C1324.878906,274.670380 1330.141968,260.741730 1327.247437,243.850601 
	C1325.506348,233.691376 1322.615479,224.505341 1314.933838,217.540878 
	C1306.649902,210.030304 1296.580811,205.872467 1285.490112,205.123077 
	C1276.515259,204.516617 1267.457520,205.240753 1258.454590,204.899200 
	C1253.902466,204.726532 1252.909058,206.363113 1252.916260,210.631088 
	C1253.034424,280.294403 1253.000000,349.957977 1253.000000,419.621490 
	C1253.000000,421.119659 1253.000000,422.617859 1253.000000,424.766052 
	C1241.133301,426.931549 1229.281250,426.048798 1217.000000,425.501404 
	C1217.000000,422.929443 1217.000000,421.126434 1217.000000,419.323395 
	C1217.000000,340.660278 1217.046875,261.997070 1216.889893,183.334274 
	C1216.879883,178.323639 1218.147461,177.001495 1223.241699,176.840866 
	C1242.361938,176.238007 1261.471680,174.069046 1280.567627,174.259567 
	C1300.001831,174.453445 1319.192261,177.960571 1335.837524,189.064392 
	C1351.912598,199.787704 1362.497192,214.371841 1365.042236,234.101929 
	C1366.611206,246.264786 1367.088745,258.362518 1363.322876,270.191193 
	C1356.700195,290.993164 1342.594971,305.478455 1323.949463,316.014954 
	C1321.131104,317.607635 1318.362549,319.288757 1315.589722,320.960205 
	C1315.343018,321.108856 1315.236450,321.490173 1314.932251,321.974457 
	C1330.922729,345.103302 1346.965332,368.307465 1363.268066,391.772888 
z"/>
<path fill="#1F3C68" opacity="1.000000" stroke="none" 
	d="
M1387.002930,319.703522 
	C1387.000122,309.897522 1386.626587,300.547729 1387.079712,291.238190 
	C1387.953979,273.278320 1391.631470,255.965729 1398.806885,239.292572 
	C1404.302734,226.522141 1411.724365,215.145370 1421.324951,205.401627 
	C1433.577148,192.966675 1448.278809,184.111954 1465.134521,179.002014 
	C1484.025513,173.275055 1503.209961,173.261612 1522.677856,174.831100 
	C1534.793701,175.807846 1546.340210,178.615036 1557.964722,181.775818 
	C1562.465942,182.999725 1562.607056,185.656570 1561.869995,188.591431 
	C1560.064819,195.778091 1557.794189,202.853943 1555.517944,209.912186 
	C1554.875977,211.902695 1554.017944,213.450333 1550.861206,212.537949 
	C1539.473633,209.246811 1528.016113,206.717758 1516.023804,205.698441 
	C1498.394897,204.200058 1482.029053,206.645599 1466.433960,214.902328 
	C1451.466553,222.826752 1441.791382,235.348068 1434.999756,250.466751 
	C1425.985229,270.533813 1423.982300,291.814148 1425.135376,313.360748 
	C1426.348389,336.026886 1432.478638,357.338318 1448.215210,374.509796 
	C1458.343628,385.561676 1471.287354,392.612427 1486.191895,394.843750 
	C1496.077148,396.323700 1506.185059,396.858887 1516.188843,396.813751 
	C1522.786011,396.783997 1529.381836,395.012238 1535.965088,393.939545 
	C1538.913940,393.459076 1539.052490,391.320557 1539.045410,388.802673 
	C1538.971436,362.807709 1539.000000,336.812408 1539.000000,310.817230 
	C1539.000000,307.484528 1539.207275,304.135254 1538.942871,300.823669 
	C1538.666626,297.363342 1540.233521,296.013672 1543.412231,296.007904 
	C1552.426880,295.991547 1561.441528,296.005585 1570.456177,295.999512 
	C1573.597168,295.997375 1575.077148,297.157715 1575.067139,300.687744 
	C1574.959351,338.513763 1574.970215,376.340271 1575.062500,414.166382 
	C1575.069214,416.889160 1574.397461,418.421173 1571.665283,419.085205 
	C1562.414673,421.333527 1553.252319,423.984772 1543.942383,425.940063 
	C1527.688110,429.353699 1511.142944,429.511871 1494.652222,428.899719 
	C1479.639771,428.342468 1465.143311,425.102875 1451.198853,419.134644 
	C1439.342407,414.060028 1428.644409,407.262085 1419.813599,398.101410 
	C1404.846558,382.575134 1395.333496,363.903320 1391.024536,342.712402 
	C1389.504639,335.237549 1388.335083,327.691467 1387.002930,319.703522 
z"/>
<path fill="#1F3C68" opacity="1.000000" stroke="none" 
	d="
M1749.031738,207.124756 
	C1747.300049,208.055923 1745.607666,208.934723 1743.912964,208.939499 
	C1714.252075,209.023239 1684.590698,209.000000 1654.929565,209.000000 
	C1653.128906,209.000000 1651.328125,209.000000 1649.265625,209.000000 
	C1649.265625,232.391876 1649.265625,255.453217 1649.265625,278.814758 
	C1675.644897,278.814758 1701.914917,278.814758 1729.092041,278.814758 
	C1729.092041,289.276459 1729.092041,299.444397 1729.092041,309.871735 
	C1702.321045,309.871735 1676.027710,309.871735 1649.367554,309.871735 
	C1649.367554,337.851654 1649.367554,365.580139 1649.367554,393.769043 
	C1683.228760,393.769043 1717.290283,393.769043 1752.175049,393.769043 
	C1752.175049,404.300659 1752.175049,414.375763 1752.175049,424.724182 
	C1705.709106,424.724182 1659.634033,424.724182 1613.279175,424.724182 
	C1613.279175,342.642303 1613.279175,260.588715 1613.279175,178.267410 
	C1658.255249,178.267410 1703.184204,178.267410 1748.748657,178.267410 
	C1750.488037,187.537613 1750.786621,197.067917 1749.031738,207.124756 
z"/>
<path fill="#1F3C68" opacity="1.000000" stroke="none" 
	d="
M1170.995483,209.000000 
	C1142.529663,209.000000 1114.563110,209.000000 1086.298706,209.000000 
	C1086.298706,232.322144 1086.298706,255.381363 1086.298706,278.886414 
	C1112.700806,278.886414 1139.102905,278.886414 1166.250610,278.886414 
	C1166.250610,289.400574 1166.250610,299.471710 1166.250610,309.971924 
	C1139.279419,309.971924 1112.868896,309.971924 1086.231201,309.971924 
	C1086.231201,338.124786 1086.231201,365.849182 1086.231201,394.015442 
	C1120.497681,394.015442 1154.562378,394.015442 1189.311523,394.015442 
	C1189.311523,404.421600 1189.311523,414.385620 1189.311523,424.673492 
	C1142.790894,424.673492 1096.725464,424.673492 1050.329712,424.673492 
	C1050.329712,342.752502 1050.329712,260.707336 1050.329712,178.330902 
	C1095.254028,178.330902 1140.308960,178.330902 1186.182373,178.330902 
	C1186.182373,188.400192 1186.182373,198.563629 1186.182373,209.000000 
	C1180.786743,209.000000 1176.140747,209.000000 1170.995483,209.000000 
z"/>
<path fill="#1F3C68" opacity="1.000000" stroke="none" 
	d="
M495.486084,394.774994 
	C506.724457,395.636322 517.575684,396.992035 528.401733,396.814941 
	C539.767456,396.629028 550.730774,394.211670 560.883484,388.135498 
	C581.818237,375.606323 583.799255,341.761841 567.094116,327.986328 
	C559.972900,322.113922 551.138184,318.108887 542.674500,314.120148 
	C526.478699,306.487488 509.468658,300.436981 493.775848,291.924438 
	C478.929810,283.871216 470.298950,270.360687 467.921539,253.143448 
	C466.305145,241.437500 466.402954,229.942703 470.014801,218.647827 
	C476.222382,199.235519 489.655457,186.912384 508.465363,180.008163 
	C527.418091,173.051529 547.006897,172.513794 566.689819,175.109589 
	C579.807922,176.839584 592.778870,179.684998 607.078613,182.258453 
	C604.172363,193.333435 601.609863,203.098663 599.111633,212.619080 
	C588.955444,210.092865 579.400085,207.018326 569.603699,205.439682 
	C554.136169,202.947113 538.554016,202.581284 523.502258,208.225555 
	C512.561646,212.328186 505.677063,223.524933 504.841278,235.105759 
	C503.646698,251.658249 512.754944,261.240417 525.906433,267.826263 
	C536.707153,273.234955 548.162292,277.340698 559.343872,281.984100 
	C573.922180,288.038055 588.442688,294.302216 599.929626,305.538025 
	C609.141724,314.548767 614.530212,325.564331 616.091919,338.561066 
	C618.180054,355.938141 617.410461,372.698212 609.117859,388.665405 
	C601.143127,404.020630 588.664062,414.204376 573.185120,420.889008 
	C551.584351,430.217407 528.540527,430.288910 505.818939,428.631195 
	C490.473572,427.511566 475.379028,422.954681 459.825500,419.866486 
	C461.098785,413.263275 461.830872,407.849548 463.238953,402.617828 
	C464.656464,397.351074 466.746124,392.265167 468.626953,386.853516 
	C477.501892,389.450165 486.294891,392.022827 495.486084,394.774994 
z"/>
<path fill="#1F3C68" opacity="1.000000" stroke="none" 
	d="
M733.004883,269.967194 
	C742.752136,248.581467 752.420288,227.567108 762.149048,206.580826 
	C766.371338,197.472717 770.599121,188.361786 775.144958,179.414993 
	C775.782898,178.159515 778.245605,177.210876 779.881775,177.182907 
	C791.116882,176.990967 802.356812,177.082092 814.743591,177.082092 
	C802.886169,200.954269 791.697327,223.443237 780.541809,245.948776 
	C766.419617,274.439606 752.297546,302.930695 738.280945,331.473450 
	C737.388855,333.290070 737.058472,335.552124 737.052551,337.608673 
	C736.973877,364.936249 737.000000,392.264099 737.000000,419.591888 
	C737.000000,421.237457 737.000000,422.883057 737.000000,425.007477 
	C724.520508,426.781921 712.361206,426.773438 700.000000,425.003052 
	C700.000000,395.703369 700.050110,367.055695 699.916504,338.408936 
	C699.904175,335.766266 699.191284,332.895538 698.012695,330.523773 
	C673.522095,281.239288 648.915710,232.012299 624.340576,182.769791 
	C623.615417,181.316742 622.981140,179.818375 621.690125,177.000000 
	C630.917908,177.000000 639.516235,177.648376 647.973083,176.831802 
	C657.981995,175.865341 663.472534,178.694977 667.769531,188.757996 
	C679.017578,215.099228 691.965942,240.713654 704.202942,266.633636 
	C709.244202,277.311829 714.199280,288.030670 719.326843,299.016724 
	C723.982849,289.219452 728.466553,279.784698 733.004883,269.967194 
z"/>
<path fill="#007F9B" opacity="1.000000" stroke="none" 
	d="
M401.114929,345.952026 
	C402.992584,355.112000 405.064545,364.237457 406.697815,373.440796 
	C408.660309,384.499390 410.547150,395.587982 411.907440,406.731812 
	C413.031189,415.937714 402.453705,425.210510 393.684326,425.178070 
	C361.094818,425.057556 328.502594,425.652069 295.440460,425.508484 
	C292.629547,414.002136 290.289581,402.965454 287.983490,391.569702 
	C294.676025,380.907654 296.859406,369.141754 296.676270,357.387909 
	C296.533630,348.232941 293.555786,339.122101 291.837952,329.991669 
	C289.239990,321.938446 286.641998,313.885193 284.418152,305.589722 
	C286.780609,306.168335 288.736237,307.082245 290.762451,307.795502 
	C309.825836,314.506073 328.879364,321.245667 347.979614,327.850067 
	C365.663483,333.964752 383.401031,339.924225 401.114929,345.952026 
z"/>
<path fill="#B4172C" opacity="1.000000" stroke="none" 
	d="
M131.887833,229.048874 
	C130.258484,220.687027 128.527527,212.343124 127.048050,203.954834 
	C126.425156,200.423157 126.493729,196.774170 125.969452,193.219574 
	C124.487144,183.169510 135.603653,173.745422 145.288345,173.836197 
	C186.546188,174.222870 227.809708,174.002838 269.534973,174.474762 
	C271.020844,179.001968 272.042847,183.058701 272.853821,187.380035 
	C259.998291,194.431274 250.554276,204.035172 245.076157,217.560104 
	C240.043777,229.984497 238.446915,242.689713 241.425278,255.669052 
	C243.276688,263.737335 246.347595,271.525726 248.871155,279.439758 
	C250.240707,286.320923 251.610275,293.202057 252.604279,300.377808 
	C250.771240,299.879456 249.283508,299.137054 247.860718,298.286072 
	C219.572113,281.366364 191.297699,264.422974 163.004929,247.510239 
	C152.653061,241.322144 142.261368,235.200714 131.887833,229.048874 
z"/>
<path fill="#1F3C68" opacity="1.000000" stroke="none" 
	d="
M1791.002441,362.986755 
	C1801.391846,340.642090 1811.726318,318.677826 1822.067993,296.716766 
	C1822.273560,296.279938 1822.561523,295.881897 1822.646484,295.740173 
	C1805.532837,256.699829 1788.489258,217.819595 1770.955322,177.820709 
	C1784.540527,177.820709 1796.951050,177.820709 1809.345581,177.820709 
	C1816.871704,195.834793 1824.242676,213.538925 1831.662842,231.222519 
	C1840.406128,252.059525 1849.250732,272.854584 1857.840210,293.754578 
	C1858.477905,295.306030 1857.848755,297.749725 1857.080688,299.449829 
	C1849.487671,316.256348 1841.664673,332.958862 1834.056152,349.758484 
	C1823.453125,373.170227 1812.861694,396.588989 1802.563477,420.135223 
	C1800.856079,424.039032 1798.137329,425.806244 1794.600464,425.870972 
	C1783.786255,426.068909 1772.963013,425.777679 1761.155762,425.667542 
	C1771.546265,403.939819 1781.247314,383.653625 1791.002441,362.986755 
z"/>
<path fill="#1F3C68" opacity="1.000000" stroke="none" 
	d="
M1878.292969,252.291306 
	C1883.024170,241.078979 1887.483398,230.168335 1892.023071,219.291214 
	C1897.744141,205.583160 1903.530762,191.902451 1909.506226,177.693588 
	C1921.863525,177.693588 1934.323853,177.693588 1947.444580,177.693588 
	C1941.997681,190.189926 1936.934814,201.874542 1931.815918,213.534485 
	C1922.136230,235.582962 1912.432861,257.621002 1902.716919,279.653473 
	C1901.215942,283.057068 1899.868774,286.572723 1897.958862,289.740295 
	C1895.648926,293.571869 1896.441406,296.952209 1898.203125,300.605225 
	C1908.832031,322.643341 1919.466675,344.679382 1929.942749,366.790314 
	C1939.013794,385.935638 1947.877197,405.179382 1957.057739,424.862793 
	C1945.140869,426.442780 1933.406982,426.907928 1921.683960,424.903137 
	C1920.121094,424.635895 1918.138672,423.202362 1917.485840,421.785736 
	C1909.501343,404.461792 1901.756104,387.027771 1893.890137,369.648834 
	C1890.153076,361.392059 1886.260254,353.205902 1882.491211,344.963440 
	C1875.293823,329.224426 1868.045288,313.507233 1861.095703,297.659302 
	C1860.384277,296.037262 1861.160645,293.427185 1861.921753,291.549347 
	C1867.199951,278.528290 1872.656982,265.579712 1878.292969,252.291306 
z"/>
<path fill="#D41F37" opacity="1.000000" stroke="none" 
	d="
M131.945465,229.435669 
	C142.261368,235.200714 152.653061,241.322144 163.004929,247.510239 
	C191.297699,264.422974 219.572113,281.366364 247.860718,298.286072 
	C249.283508,299.137054 250.771240,299.879456 252.531830,300.818298 
	C256.980011,337.237762 229.220795,371.843201 198.379883,382.391266 
	C191.630188,366.971588 185.298447,351.841675 178.869812,336.753082 
	C168.212723,311.739960 157.501099,286.750061 146.796005,261.757446 
	C142.878860,252.612259 138.931244,243.479874 134.905930,234.382202 
	C134.761612,234.056046 133.639450,234.162552 132.973007,234.067413 
	C132.649704,232.652420 132.326416,231.237442 131.945465,229.435669 
z"/>
<path fill="#008EA6" opacity="1.000000" stroke="none" 
	d="
M401.065979,345.560089 
	C383.401031,339.924225 365.663483,333.964752 347.979614,327.850067 
	C328.879364,321.245667 309.825836,314.506073 290.762451,307.795502 
	C288.736237,307.082245 286.780609,306.168335 284.479614,305.191345 
	C281.537994,288.388214 284.496094,272.544434 292.153992,257.775604 
	C299.019531,244.534821 308.879242,233.637497 321.655457,225.396896 
	C322.131775,225.923981 322.177826,226.278198 322.355560,226.544571 
	C347.433563,264.134247 372.512573,301.723267 397.649597,339.273468 
	C398.402985,340.398956 399.768097,341.114990 400.848022,342.021942 
	C400.904327,343.070679 400.960663,344.119415 401.065979,345.560089 
z"/>
<path fill="#006E85" opacity="1.000000" stroke="none" 
	d="
M400.781464,341.627899 
	C399.768097,341.114990 398.402985,340.398956 397.649597,339.273468 
	C372.512573,301.723267 347.433563,264.134247 322.355560,226.544571 
	C322.177826,226.278198 322.131775,225.923981 321.972534,225.255188 
	C336.824066,215.150101 353.297302,211.765228 370.844696,213.068024 
	C374.014679,213.303391 376.427643,213.889618 377.252625,218.590042 
	C381.396729,242.200958 386.379669,265.663483 390.942169,289.202515 
	C394.300110,306.526855 397.464355,323.888702 400.781464,341.627899 
z"/>
<path fill="#142C53" opacity="1.000000" stroke="none" 
	d="
M249.177032,279.218079 
	C246.347595,271.525726 243.276688,263.737335 241.425278,255.669052 
	C238.446915,242.689713 240.043777,229.984497 245.076157,217.560104 
	C250.554276,204.035172 259.998291,194.431274 273.207550,187.303223 
	C283.660583,183.953186 293.492462,180.738266 303.458069,178.012375 
	C309.562134,176.342728 315.871460,175.423279 322.088593,174.166931 
	C321.616180,175.703979 321.496552,177.487946 320.619110,178.741486 
	C304.094330,202.349655 287.517761,225.921844 270.866272,249.440826 
	C263.840149,259.364655 256.616669,269.148804 249.177032,279.218079 
z"/>
<path fill="#EE3959" opacity="1.000000" stroke="none" 
	d="
M132.983124,234.500000 
	C133.639450,234.162552 134.761612,234.056046 134.905930,234.382202 
	C138.931244,243.479874 142.878860,252.612259 146.796005,261.757446 
	C157.501099,286.750061 168.212723,311.739960 178.869812,336.753082 
	C185.298447,351.841675 191.630188,366.971588 198.022507,382.451416 
	C186.488129,386.330078 174.734482,387.981812 162.756683,385.809875 
	C161.294083,385.544647 159.458908,383.087555 159.141708,381.394226 
	C154.944412,358.988464 151.042343,336.527618 146.954422,314.101013 
	C143.723541,296.376160 140.252274,278.694916 137.058578,260.963531 
	C135.502258,252.322784 134.336044,243.611771 132.983124,234.500000 
z"/>
<path fill="#B69267" opacity="1.000000" stroke="none" 
	d="
M291.555969,330.165710 
	C293.555786,339.122101 296.533630,348.232941 296.676270,357.387909 
	C296.859406,369.141754 294.676025,380.907654 287.688110,391.739502 
	C278.879730,405.846588 266.209808,413.797516 251.279221,418.213898 
	C241.009567,421.251617 230.458115,423.336670 220.032608,425.847504 
	C218.775208,425.847504 217.517822,425.847504 215.075394,425.847504 
	C221.109848,418.220734 226.449097,411.421814 231.842667,404.666290 
	C243.636200,389.894775 255.426605,375.120544 267.278290,360.395660 
	C274.809937,351.038116 282.455048,341.771942 290.027710,332.447235 
	C290.536591,331.820648 290.862793,331.045715 291.555969,330.165710 
z"/>
<path fill="#016C7E" opacity="1.000000" stroke="none" 
	d="
M220.496918,425.915131 
	C230.458115,423.336670 241.009567,421.251617 251.279221,418.213898 
	C266.209808,413.797516 278.879730,405.846588 287.654266,392.098572 
	C290.289581,402.965454 292.629547,414.002136 294.975830,425.434875 
	C270.308502,425.881531 245.634857,425.932159 220.496918,425.915131 
z"/>
<path fill="#8E0C1F" opacity="1.000000" stroke="none" 
	d="
M321.615784,174.094940 
	C315.871460,175.423279 309.562134,176.342728 303.458069,178.012375 
	C293.492462,180.738266 283.660583,183.953186 273.418579,187.038605 
	C272.042847,183.058701 271.020844,179.001968 269.998108,174.549942 
	C287.045929,174.110733 304.094421,174.066833 321.615784,174.094940 
z"/>
</svg>